<svg width="6" height="13" viewBox="0 0 6 13" fill="none" xmlns="http://www.w3.org/2000/svg">
<path d="M5.99856 6.84754C5.98819 6.69892 5.92934 6.55802 5.83146 6.44762L1.13703 1.11439H1.13712C1.02141 0.982793 0.859409 0.903645 0.686768 0.894252C0.514033 0.884859 0.344674 0.946056 0.216043 1.06426C0.0874258 1.18257 0.0100166 1.34821 0.000921107 1.52482C-0.00826588 1.70144 0.0515868 1.87453 0.167197 2.00603L4.47043 6.89331L0.167197 11.7806C0.0515868 11.9121 -0.00826751 12.0853 0.000921107 12.2618C0.010017 12.4384 0.0874235 12.604 0.216043 12.7224C0.34466 12.8406 0.514033 12.9018 0.686768 12.8924C0.859412 12.883 1.02141 12.8038 1.13712 12.6723L5.83155 7.3391H5.83146C5.95008 7.20508 6.01029 7.02772 5.99856 6.84739V6.84754Z" fill="white"/>
</svg>
