<svg width="26" height="34" viewBox="0 0 26 34" fill="none" xmlns="http://www.w3.org/2000/svg">
<path d="M7.55165 33.8651C10.5385 33.5123 13.919 27.1925 15.453 23.8122L14.5847 23.2831C14.44 23.7533 13.5428 25.664 10.7643 29.544C7.29113 34.3941 5.38092 31.484 4.33898 29.544C3.29705 27.604 1.9078 17.8375 4.33898 12.0174C6.77017 6.19735 9.4819 11.2301 10.7643 12.9657C11.8349 14.4148 15.2432 20.875 16.864 23.9614C18.7453 27.1066 22.7639 32.2953 24.9172 27.0749C26.0197 24.4022 26.0817 21.9662 25.9504 19.8516C25.7611 16.8035 24.8807 14.4235 23.7016 12.9657C21.7046 10.4966 19.0129 14.3766 17.971 15.9639C17.1374 17.2337 18.2519 17.2511 18.5124 17.3687C20.0753 14.8114 21.01 13.9565 21.8782 14.1121C24.8304 14.6412 24.4831 24.694 23.3543 26.2813C22.2255 27.8686 20.1773 25.8342 16.3569 17.3687C13.3005 10.5962 10.7643 7.17987 8.76721 6.88117C7.32009 6.41087 3.72482 6.352 1.98826 10.0909C-0.182444 14.7646 -0.17573 17.5512 0.171217 23.6358C0.507694 29.5368 3.81805 34.306 7.55165 33.8651Z" fill="white"/>
<ellipse cx="6.27594" cy="2.43459" rx="2.40338" ry="2.43459" fill="white"/>
<ellipse cx="21.8282" cy="7.92507" rx="2.40338" ry="2.43459" fill="white"/>
</svg>
