<svg width="24" height="24" viewBox="0 0 24 24" fill="none" xmlns="http://www.w3.org/2000/svg">
<path d="M4.4793 19.5389C4.76289 19.8228 5.14658 19.9823 5.5465 19.9823C5.94642 19.9823 6.33011 19.8228 6.6137 19.5389L11.9729 14.0645L17.332 19.5389C17.7266 19.9366 18.3022 20.0918 18.8415 19.9463C19.3808 19.8008 19.8023 19.3763 19.9467 18.8331C20.0912 18.2899 19.9371 17.7101 19.5422 17.3127L14.1073 11.9146L19.5422 6.51658C19.876 6.12422 19.9896 5.58789 19.8441 5.0924C19.6986 4.59692 19.3136 4.20913 18.8217 4.06262C18.3295 3.91609 17.7973 4.03045 17.4075 4.36664L11.9729 9.76469L6.61369 4.36664C6.22416 4.03045 5.69169 3.91609 5.19977 4.06262C4.70786 4.20914 4.32286 4.5969 4.17741 5.0924C4.03193 5.58789 4.14547 6.12421 4.47924 6.51658L9.83841 11.9146L4.47924 17.3127C4.1736 17.6009 4 18.0039 4 18.4256C4 18.8476 4.1736 19.2504 4.47924 19.5389L4.4793 19.5389Z" fill="#121212"/>
</svg>
